<?xml version="1.0" standalone="no"?>
<!DOCTYPE svg PUBLIC "-//W3C//DTD SVG 20010904//EN"
 "http://www.w3.org/TR/2001/REC-SVG-20010904/DTD/svg10.dtd">
<svg version="1.0" xmlns="http://www.w3.org/2000/svg"
 width="760.000000pt" height="632.000000pt" viewBox="0 0 760.000000 632.000000"
 preserveAspectRatio="xMidYMid meet">

<g transform="translate(0.000000,632.000000) scale(0.100000,-0.100000)"
fill="#000000" stroke="none">
<path d="M2890 6310 c-469 -44 -940 -193 -1315 -415 -790 -468 -1330 -1218
-1509 -2099 -49 -238 -60 -353 -60 -636 0 -283 11 -398 60 -636 252 -1235
1227 -2211 2459 -2459 239 -48 353 -59 630 -59 277 0 391 11 630 59 1039 210
1907 938 2305 1935 75 190 171 533 152 552 -11 11 -373 34 -396 25 -9 -4 -16
-15 -16 -26 0 -11 -16 -73 -35 -139 -216 -751 -724 -1365 -1415 -1711 -261
-130 -534 -216 -833 -263 -205 -32 -579 -32 -784 0 -865 134 -1590 638 -2012
1397 -353 635 -436 1413 -224 2115 278 926 1024 1640 1961 1876 241 61 385 78
667 78 282 0 426 -17 667 -78 720 -181 1361 -667 1707 -1294 28 -50 51 -95 51
-100 0 -4 -79 -50 -176 -102 -163 -88 -174 -96 -157 -110 30 -23 575 -403 756
-525 89 -60 201 -137 247 -170 47 -34 90 -64 95 -67 6 -4 1 238 -15 675 -21
555 -28 681 -39 679 -7 -1 -86 -43 -174 -92 -89 -49 -164 -87 -168 -84 -4 2
-26 39 -50 82 -100 183 -260 402 -417 572 -521 564 -1167 900 -1932 1005 -137
19 -526 27 -660 15z"/>
<path d="M2290 3115 l0 -1265 240 0 240 0 0 1265 0 1265 -240 0 -240 0 0
-1265z"/>
<path d="M3360 3115 l0 -1265 240 0 240 0 0 1265 0 1265 -240 0 -240 0 0
-1265z"/>
</g>
</svg>
