<?xml version="1.0" standalone="no"?>
<!DOCTYPE svg PUBLIC "-//W3C//DTD SVG 20010904//EN"
 "http://www.w3.org/TR/2001/REC-SVG-20010904/DTD/svg10.dtd">
<svg version="1.0" xmlns="http://www.w3.org/2000/svg"
 width="100.000000pt" height="100.000000pt" viewBox="0 0 100.000000 100.000000"
 preserveAspectRatio="xMidYMid meet">

<g transform="translate(0.000000,100.000000) scale(0.100000,-0.100000)"
fill="#000000" stroke="none">
<path d="M147 954 c-4 -4 -7 -54 -7 -111 l0 -104 108 3 c87 2 107 6 107 18 0
11 -17 16 -70 20 l-70 5 35 27 c20 15 63 40 95 55 52 24 72 28 156 28 90 0 99
-2 171 -37 202 -100 282 -330 186 -535 -29 -62 -120 -153 -183 -182 -157 -74
-334 -43 -455 79 -66 65 -98 129 -114 224 -12 69 -30 94 -43 61 -10 -29 16
-144 48 -207 72 -142 229 -238 389 -238 213 0 395 156 432 370 23 134 -24 281
-121 378 -156 156 -391 173 -574 42 l-56 -40 -3 71 c-3 66 -13 90 -31 73z"/>
<path d="M390 650 c0 -19 -40 -50 -65 -50 -16 0 -25 -6 -25 -15 0 -11 11 -15
40 -15 l40 0 0 -115 c0 -108 1 -115 20 -115 19 0 20 7 20 160 0 136 -2 160
-15 160 -8 0 -15 -4 -15 -10z"/>
<path d="M537 649 c-33 -19 -47 -64 -47 -151 0 -128 39 -174 129 -152 51 13
71 56 71 157 0 88 -17 132 -56 147 -32 13 -74 12 -97 -1z m99 -50 c15 -16 19
-36 19 -88 0 -103 -31 -153 -83 -137 -31 10 -47 54 -47 131 0 83 18 115 65
115 15 0 35 -9 46 -21z"/>
</g>
</svg>
