<svg width="379" height="379" xmlns="http://www.w3.org/2000/svg" xmlns:xlink="http://www.w3.org/1999/xlink" overflow="hidden"><g transform="translate(-727 -162)"><path d="M727 351C727 246.618 811.618 162 916 162 1020.38 162 1105 246.618 1105 351 1105 455.382 1020.38 540 916 540 811.618 540 727 455.382 727 351Z" fill="#000000" fill-rule="evenodd" fill-opacity="0.6"/><path d="M728 351C728 246.618 812.618 162 917 162 1021.38 162 1106 246.618 1106 351 1106 455.382 1021.38 540 917 540 812.618 540 728 455.382 728 351Z" fill="#000000" fill-rule="evenodd" fill-opacity="0.439216"/><path d="M860 278 1011 354 860 430Z" fill="#FFFFFF" fill-rule="evenodd"/></g></svg>