<svg width="379" height="379" xmlns="http://www.w3.org/2000/svg" xmlns:xlink="http://www.w3.org/1999/xlink" overflow="hidden"><g transform="translate(-203 -162)"><path d="M203 351C203 246.618 287.618 162 392 162 496.382 162 581 246.618 581 351 581 455.382 496.382 540 392 540 287.618 540 203 455.382 203 351Z" fill="#000000" fill-rule="evenodd" fill-opacity="0.6"/><path d="M204 351C204 246.618 288.618 162 393 162 497.382 162 582 246.618 582 351 582 455.382 497.382 540 393 540 288.618 540 204 455.382 204 351Z" fill="#000000" fill-rule="evenodd" fill-opacity="0.439216"/><rect x="408" y="278" width="23" height="151" fill="#FFFFFF"/><rect x="354" y="278" width="22" height="151" fill="#FFFFFF"/></g></svg>