<?xml version="1.0" standalone="no"?>
<!DOCTYPE svg PUBLIC "-//W3C//DTD SVG 20010904//EN"
 "http://www.w3.org/TR/2001/REC-SVG-20010904/DTD/svg10.dtd">
<svg version="1.0" xmlns="http://www.w3.org/2000/svg"
 width="512.000000pt" height="512.000000pt" viewBox="0 0 512.000000 512.000000"
 preserveAspectRatio="xMidYMid meet">

<g transform="translate(0.000000,512.000000) scale(0.100000,-0.100000)"
fill="#000000" stroke="none">
<path d="M3785 4711 c-49 -23 -99 -74 -119 -123 -20 -48 -20 -138 -1 -186 10
-23 83 -104 197 -219 l182 -182 -410 -3 c-435 -4 -433 -4 -576 -58 -127 -47
-282 -173 -358 -291 -20 -32 -255 -466 -521 -965 -343 -643 -497 -921 -527
-955 -29 -33 -69 -61 -120 -86 l-76 -38 -520 -5 c-588 -6 -561 -2 -635 -86
-60 -69 -75 -148 -45 -237 20 -59 95 -129 156 -146 32 -9 179 -11 563 -9 556
4 540 3 687 58 126 47 275 168 356 287 21 32 256 467 523 967 342 642 497 923
527 957 29 33 69 61 120 86 l76 38 390 3 391 3 -186 -188 c-149 -152 -188
-196 -197 -229 -48 -166 57 -314 223 -314 107 0 115 6 533 423 211 210 402
404 425 431 40 47 42 53 42 116 0 63 -2 69 -42 116 -23 27 -214 221 -425 431
-281 280 -396 388 -429 402 -57 27 -150 27 -204 2z"/>
<path d="M400 3987 c-49 -16 -133 -102 -148 -153 -27 -93 -4 -181 64 -244 24
-22 56 -46 72 -53 20 -9 169 -13 548 -17 l520 -5 76 -38 c112 -55 142 -94 302
-396 77 -144 142 -258 146 -254 11 12 240 444 240 452 0 13 -177 338 -210 386
-75 109 -228 230 -348 275 -148 56 -128 54 -697 56 -372 2 -540 -1 -565 -9z"/>
<path d="M3785 2311 c-108 -50 -159 -172 -123 -295 9 -33 48 -77 197 -229
l186 -188 -391 3 -390 3 -76 38 c-110 54 -143 96 -287 368 -69 129 -132 247
-142 262 l-17 29 -118 -223 c-66 -123 -120 -229 -122 -235 -4 -13 148 -299
200 -377 81 -119 230 -240 356 -287 142 -54 142 -53 576 -58 l409 -3 -181
-182 c-114 -115 -187 -196 -197 -219 -21 -51 -19 -144 4 -193 40 -85 120 -135
218 -135 104 1 114 8 531 423 211 210 402 404 425 431 40 47 42 53 42 116 0
63 -2 69 -42 116 -23 27 -214 221 -425 431 -283 282 -395 387 -428 402 -58 27
-150 27 -205 2z"/>
</g>
</svg>
