<svg width="502" height="514" xmlns="http://www.w3.org/2000/svg" xmlns:xlink="http://www.w3.org/1999/xlink" overflow="hidden"><g transform="translate(-6 341)"><path d="M401.555-340C402.995-338.768 403.986-337.463 405.134-336.316 436.328-305.151 467.58-274.044 498.675-242.782 501.566-239.875 504.146-236.278 505.716-232.521 509.113-224.386 505.296-217.471 499.816-211.948 467.823-179.703 435.565-147.721 403.506-115.541 400.842-112.866 399.367-113.456 397.097-115.803 390.622-122.499 384.084-129.149 377.289-135.517 374.265-138.35 374.805-140.002 377.497-142.663 398.209-163.129 418.769-183.75 439.406-204.292 440.523-205.404 441.917-206.239 443.182-207.203 442.931-207.578 442.68-207.953 442.429-208.328 440.668-208.328 438.907-208.328 437.145-208.328 323.232-208.328 209.318-208.325 95.4044-208.333 83.4229-208.333 73.2212-204.003 63.8235-196.672 53.673-188.753 47.5207-178.556 44.6697-166.313 43.5677-161.581 43.2833-156.577 43.2516-151.693 43.1086-129.584 43.1891-107.473 43.1891-84.9999 31.4047-84.9999 19.671-84.9999 7.49686-84.9999 7.4209-85.9229 7.22913-87.1734 7.22829-88.4239 7.21056-113.028 6.61812-137.652 7.41545-162.231 7.99057-179.96 14.5994-195.988 25.5073-210.202 33.498-220.614 43.2989-228.963 54.7888-234.953 64.3067-239.915 74.5516-243.617 85.4986-244.193 95.8945-244.739 106.31-245.186 116.718-245.193 223.47-245.264 330.223-245.236 436.975-245.236 438.767-245.236 440.558-245.236 443.236-245.236 441.644-246.899 440.597-248.037 439.503-249.129 418.898-269.703 398.339-290.324 377.619-310.783 374.733-313.632 374.364-315.334 377.521-318.281 384.811-325.087 391.725-332.294 398.862-339.669 399.682-340 400.431-340 401.555-340Z" fill-rule="evenodd"/><path d="M112.238 172C110.798 170.764 109.806 169.455 108.656 168.303 76.8427 136.443 45.1294 104.482 13.112 72.8285 4.14116 63.9597 5.78119 51.1959 13.2669 43.7831 45.4953 11.8688 77.5107-20.2619 109.455-52.4611 112.598-55.6285 114.331-55.587 117.322-52.4045 124.373-44.9017 131.81-37.7625 139.319-30.2486 116.038-6.96539 93.0124 16.0634 69.2163 39.8626 71.8648 39.8626 73.4519 39.8626 75.039 39.8626 189.89 39.8626 304.741 39.9039 419.591 39.7997 431.288 39.7891 441.588 35.3362 450.529 27.7805 464.162 16.26 470.391 1.65713 470.061-16.2574 469.647-38.7427 469.962-61.2414 469.962-84 482.293-84 494.368-84 506.972-84 506.972-82.5686 506.972-81.1296 506.972-79.6906 506.972-59.3385 506.881-38.986 506.998-18.6346 507.112 1.27132 503.102 20.1017 491.904 36.7838 479.325 55.522 462.003 68.2576 440.068 73.6966 431.132 75.9123 421.647 76.7545 412.409 76.771 300.225 76.9715 188.042 76.9011 75.8578 76.9011 74.0508 76.9011 72.2437 76.9011 70.6842 76.9011 93.6419 99.8587 116.642 122.858 140.048 146.264 131.165 155.157 123.085 163.247 114.934 171.668 114.114 172 113.364 172 112.238 172Z" fill-rule="evenodd"/></g></svg>