<svg version="1.1" id="Layer_1" xmlns="http://www.w3.org/2000/svg" xmlns:xlink="http://www.w3.org/1999/xlink" x="0px" y="0px"
	 width="100%" viewBox="0 0 512 512" enable-background="new 0 0 512 512" xml:space="preserve">
<path fill="#FFFFFF" opacity="1.000000" stroke="none" 
	d="
M112.000000,513.000000 
	C75.015739,513.000000 38.031475,513.000000 1.023606,513.000000 
	C1.023606,342.421661 1.023606,171.843323 1.023606,1.000000 
	C133.355225,1.000000 265.710632,1.000000 398.462921,1.331372 
	C391.787933,8.724809 384.868378,15.949737 377.573273,22.773155 
	C374.414368,25.727827 374.783386,27.433790 377.671387,30.290281 
	C398.406616,50.799431 418.980438,71.471863 439.600372,92.097534 
	C440.694611,93.192093 441.742615,94.332878 443.335602,96.000000 
	C440.656036,96.000000 438.863251,96.000000 437.070465,96.000000 
	C330.240936,96.000000 223.411392,95.972443 116.581909,96.043625 
	C106.166916,96.050568 95.743454,96.498024 85.339989,97.045982 
	C74.385139,97.622971 64.132767,101.334679 54.608097,106.308823 
	C43.109856,112.313644 33.301914,120.683594 25.305428,131.121704 
	C14.389691,145.370438 7.776059,161.438873 7.200497,179.212021 
	C6.402560,203.851959 6.995493,228.537094 7.013158,253.202866 
	C7.014056,254.456512 7.205935,255.710007 7.281937,256.635376 
	C19.464863,256.635376 31.207079,256.635376 43.000000,256.635376 
	C43.000000,234.105850 42.919445,211.940384 43.062603,189.776337 
	C43.094231,184.879929 43.378853,179.863358 44.481655,175.119400 
	C47.334629,162.846634 53.491436,152.624023 63.649364,144.685516 
	C73.053734,137.335938 83.262901,132.994522 95.253021,132.995346 
	C209.248962,133.003143 323.244904,133.000000 437.240845,133.000000 
	C439.003174,133.000000 440.765472,133.000000 442.527802,133.000000 
	C442.779053,133.375946 443.030304,133.751907 443.281586,134.127853 
	C442.015747,135.094238 440.621094,135.931458 439.503174,137.046173 
	C418.850769,157.639297 398.276550,178.311172 377.549805,198.828979 
	C374.855347,201.496216 374.315247,203.151993 377.341125,205.992523 
	C384.141357,212.376328 390.683502,219.042908 397.163635,225.755692 
	C399.435211,228.108871 400.910767,228.699600 403.577087,226.018433 
	C435.658844,193.758026 467.940369,161.695984 499.956512,129.370926 
	C505.440247,123.834229 509.260406,116.901718 505.860443,108.746696 
	C504.290039,104.979965 501.708252,101.373985 498.814789,98.459908 
	C467.696991,67.120110 436.422607,35.935791 405.206543,4.693530 
	C404.056946,3.543005 403.065277,2.234747 402.000000,0.999998 
	C438.984283,1.000000 475.968536,1.000000 512.976440,1.000000 
	C512.976440,171.578369 512.976440,342.156738 512.976440,513.000000 
	C380.644775,513.000000 248.289368,513.000000 115.537079,512.668640 
	C123.218475,504.255981 131.296738,496.174713 140.177032,487.291107 
	C116.777397,463.909546 93.783760,440.933685 70.832321,418.000000 
	C72.391396,418.000000 74.197983,418.000000 76.004562,418.000000 
	C188.157455,418.000000 300.310486,418.070374 412.463013,417.870087 
	C421.698425,417.853607 431.181427,417.012238 440.114502,414.798920 
	C462.044037,409.365479 479.360565,396.643188 491.936035,377.924469 
	C503.131561,361.259796 507.139954,342.449005 507.025818,322.563690 
	C506.909119,302.233521 507.000000,281.902161 507.000000,261.571320 
	C507.000000,260.133820 507.000000,258.696350 507.000000,257.266388 
	C494.399567,257.266388 482.328217,257.266388 470.000000,257.266388 
	C470.000000,280.001312 469.685883,302.476593 470.099609,324.938477 
	C470.429199,342.834412 464.202240,357.422089 450.573029,368.930511 
	C441.634216,376.478363 431.337036,380.926636 419.643555,380.937225 
	C304.824402,381.041260 190.005142,381.000000 75.185913,381.000000 
	C73.599243,381.000000 72.012573,381.000000 69.364838,381.000000 
	C93.154434,357.225647 116.173950,334.220856 139.447906,310.961823 
	C131.941605,303.455750 124.506470,296.324066 117.457680,288.829041 
	C114.467659,285.649780 112.734344,285.608368 109.592903,288.772461 
	C77.657005,320.938171 45.650448,353.035400 13.430885,384.916504 
	C5.947208,392.321564 4.307665,405.072083 13.276073,413.931671 
	C45.284637,445.552032 76.989227,477.480072 108.793793,509.306763 
	C109.943336,510.457092 110.934837,511.765350 112.000000,513.000000 
z"/>
<path fill="#000000" opacity="1.000000" stroke="none" 
	d="
M401.625000,0.999998 
	C403.065277,2.234747 404.056946,3.543005 405.206543,4.693530 
	C436.422607,35.935791 467.696991,67.120110 498.814789,98.459908 
	C501.708252,101.373985 504.290039,104.979965 505.860443,108.746696 
	C509.260406,116.901718 505.440247,123.834229 499.956512,129.370926 
	C467.940369,161.695984 435.658844,193.758026 403.577087,226.018433 
	C400.910767,228.699600 399.435211,228.108871 397.163635,225.755692 
	C390.683502,219.042908 384.141357,212.376328 377.341125,205.992523 
	C374.315247,203.151993 374.855347,201.496216 377.549805,198.828979 
	C398.276550,178.311172 418.850769,157.639297 439.503174,137.046173 
	C440.621094,135.931458 442.015747,135.094238 443.281586,134.127853 
	C443.030304,133.751907 442.779053,133.375946 442.527802,133.000000 
	C440.765472,133.000000 439.003174,133.000000 437.240845,133.000000 
	C323.244904,133.000000 209.248962,133.003143 95.253021,132.995346 
	C83.262901,132.994522 73.053734,137.335938 63.649364,144.685516 
	C53.491436,152.624023 47.334629,162.846634 44.481655,175.119400 
	C43.378853,179.863358 43.094231,184.879929 43.062603,189.776337 
	C42.919445,211.940384 43.000000,234.105850 43.000000,256.635376 
	C31.207079,256.635376 19.464863,256.635376 7.281937,256.635376 
	C7.205935,255.710007 7.014056,254.456512 7.013158,253.202866 
	C6.995493,228.537094 6.402560,203.851959 7.200497,179.212021 
	C7.776059,161.438873 14.389691,145.370438 25.305428,131.121704 
	C33.301914,120.683594 43.109856,112.313644 54.608097,106.308823 
	C64.132767,101.334679 74.385139,97.622971 85.339989,97.045982 
	C95.743454,96.498024 106.166916,96.050568 116.581909,96.043625 
	C223.411392,95.972443 330.240936,96.000000 437.070465,96.000000 
	C438.863251,96.000000 440.656036,96.000000 443.335602,96.000000 
	C441.742615,94.332878 440.694611,93.192093 439.600372,92.097534 
	C418.980438,71.471863 398.406616,50.799431 377.671387,30.290281 
	C374.783386,27.433790 374.414368,25.727827 377.573273,22.773155 
	C384.868378,15.949737 391.787933,8.724809 398.929901,1.331372 
	C399.750000,1.000000 400.500000,1.000000 401.625000,0.999998 
z"/>
<path fill="#000000" opacity="1.000000" stroke="none" 
	d="
M112.375000,513.000000 
	C110.934837,511.765350 109.943336,510.457092 108.793793,509.306763 
	C76.989227,477.480072 45.284637,445.552032 13.276073,413.931671 
	C4.307665,405.072083 5.947208,392.321564 13.430885,384.916504 
	C45.650448,353.035400 77.657005,320.938171 109.592903,288.772461 
	C112.734344,285.608368 114.467659,285.649780 117.457680,288.829041 
	C124.506470,296.324066 131.941605,303.455750 139.447906,310.961823 
	C116.173950,334.220856 93.154434,357.225647 69.364838,381.000000 
	C72.012573,381.000000 73.599243,381.000000 75.185913,381.000000 
	C190.005142,381.000000 304.824402,381.041260 419.643555,380.937225 
	C431.337036,380.926636 441.634216,376.478363 450.573029,368.930511 
	C464.202240,357.422089 470.429199,342.834412 470.099609,324.938477 
	C469.685883,302.476593 470.000000,280.001312 470.000000,257.266388 
	C482.328217,257.266388 494.399567,257.266388 507.000000,257.266388 
	C507.000000,258.696350 507.000000,260.133820 507.000000,261.571320 
	C507.000000,281.902161 506.909119,302.233521 507.025818,322.563690 
	C507.139954,342.449005 503.131561,361.259796 491.936035,377.924469 
	C479.360565,396.643188 462.044037,409.365479 440.114502,414.798920 
	C431.181427,417.012238 421.698425,417.853607 412.463013,417.870087 
	C300.310486,418.070374 188.157455,418.000000 76.004562,418.000000 
	C74.197983,418.000000 72.391396,418.000000 70.832321,418.000000 
	C93.783760,440.933685 116.777397,463.909546 140.177032,487.291107 
	C131.296738,496.174713 123.218475,504.255981 115.070099,512.668640 
	C114.250000,513.000000 113.500000,513.000000 112.375000,513.000000 
z"/>
</svg>